<svg width="50" height="54" viewBox="0 0 50 54" fill="none" xmlns="http://www.w3.org/2000/svg">
<path d="M0.227947 27.2093C0.0854764 26.9449 0.0854757 26.6266 0.227946 26.3622L12.2468 4.05794C12.4026 3.76887 12.7045 3.58862 13.0328 3.58862H36.9665C37.2951 3.58862 37.5969 3.76887 37.7526 4.05794L49.7715 26.3622C49.914 26.6266 49.914 26.9449 49.7715 27.2093L37.7526 49.5136C37.5969 49.8025 37.2951 49.9829 36.9665 49.9829H13.0328C12.7045 49.9829 12.4026 49.8025 12.2468 49.5136L0.227947 27.2093Z" fill="#08AFDD"/>
<path d="M11.7427 19.4257C12.0924 18.8662 12.9073 18.8662 13.257 19.4257L17.5612 26.3125C17.7421 26.602 17.7421 26.9694 17.5612 27.2589L13.257 34.1457C12.9073 34.7052 12.0924 34.7052 11.7427 34.1457L7.43843 27.2589C7.2575 26.9694 7.2575 26.602 7.43843 26.3125L11.7427 19.4257Z" fill="#ED0E0E"/>
<path d="M24.2427 31.2114C24.5924 30.6519 25.4073 30.6519 25.757 31.2114L30.0612 38.0982C30.2421 38.3878 30.2421 38.755 30.0612 39.0446L25.757 45.9314C25.4073 46.491 24.5924 46.491 24.2427 45.9314L19.9384 39.0446C19.7575 38.755 19.7575 38.3878 19.9384 38.0982L24.2427 31.2114Z" fill="#ED0E0E"/>
<path d="M36.3853 19.7829C36.7349 19.2233 37.5499 19.2233 37.8995 19.7829L42.2038 26.6697C42.3849 26.9592 42.3849 27.3266 42.2038 27.6161L37.8995 34.5029C37.5499 35.0624 36.7349 35.0624 36.3853 34.5029L32.081 27.6161C31.9001 27.3266 31.9001 26.9592 32.081 26.6697L36.3853 19.7829Z" fill="#ED0E0E"/>
<path d="M39.0287 27.5482L39.773 27.7362C39.617 28.3475 39.3355 28.8143 38.9287 29.1366C38.5248 29.4563 38.0298 29.6161 37.4441 29.6161C36.838 29.6161 36.3445 29.4933 35.9634 29.2478C35.5847 28.9997 35.2957 28.6416 35.0962 28.1736C34.8992 27.7055 34.8008 27.203 34.8008 26.6658C34.8008 26.0801 34.912 25.5699 35.1346 25.1351C35.3596 24.6977 35.6781 24.3665 36.0898 24.1415C36.5041 23.9138 36.9595 23.8 37.4555 23.8C38.0184 23.8 38.4916 23.9432 38.8752 24.2297C39.2587 24.5161 39.5259 24.919 39.677 25.4382L38.9441 25.6108C38.8137 25.2016 38.6245 24.9036 38.3762 24.7169C38.1284 24.5302 37.8162 24.4368 37.4402 24.4368C37.008 24.4368 36.6462 24.5404 36.3545 24.7476C36.0655 24.9548 35.8623 25.2336 35.7446 25.584C35.6269 25.9318 35.5681 26.2912 35.5681 26.662C35.5681 27.1403 35.6371 27.5585 35.7752 27.9166C35.9159 28.2721 36.1334 28.5381 36.4273 28.7145C36.7216 28.891 37.0402 28.9793 37.3827 28.9793C37.7998 28.9793 38.1527 28.8591 38.4416 28.6186C38.7305 28.3782 38.9262 28.0214 39.0287 27.5482Z" fill="white"/>
<path d="M10.2715 29.6428V24.0186H11.0158V26.3281H13.9392V24.0186H14.6834V29.6428H13.9392V26.9918H11.0158V29.6428H10.2715Z" fill="white"/>
<path d="M22.4883 41.4285L24.6482 35.8043H25.45L27.752 41.4285H26.9041L26.248 39.725H23.8963L23.2786 41.4285H22.4883ZM24.1111 39.1189H26.0179L25.4309 37.5614C25.2518 37.0882 25.1188 36.6993 25.0319 36.395C24.9602 36.7557 24.8592 37.1139 24.7288 37.4693L24.1111 39.1189Z" fill="white"/>
<path d="M20.7148 16.7857L24.5029 20.5738" stroke="#FFD600" stroke-linecap="round"/>
<path d="M33.3023 7.14288L24.6426 20.6817" stroke="#FFD600" stroke-linecap="round"/>
</svg>
